# xmcd CD database file
#
# Track frame offsets:
#	150
#	12397
#	24240
#	35826
#	46424
#	62825
#	77888
#	94875
#	111162
#	128894
#	137448
#	151163
#	165747
#	180294
#	195636
#	210158
#	225905
#	244364
#
# Disc length: 3487 seconds
#
# Revision: 0
# Processed by: cddbd v1.5.2PL0 Copyright (c) Steve Scherf et al.
# Submitted via: ACXtractor (MTCDDB.DLL V2003.12.21)
#
DISCID=e30d9d12
DTITLE=Reg Lindsay - Secrets of Life
DYEAR=2007
DGENRE=Country
TTITLE0=Armstrong
TTITLE1=You're the One
TTITLE2=Another Honky Tonk Night
TTITLE3=Simple Song
TTITLE4=Country Joe and Micky Finn
TTITLE5=Love Catches Fire
TTITLE6=No Slowin' Down
TTITLE7=Comin' Down is Easy
TTITLE8=He's Grown old Playin' Cowboy
TTITLE9=Love Goes to Hell When It Dies
TTITLE10=Life out on the Road
TTITLE11=Without Love
TTITLE12=A Little Bit of Lovin'
TTITLE13=Empty Arms Hotel
TTITLE14=It Took some Kind of Women
TTITLE15=You can be Replaced
TTITLE16=Bronco
TTITLE17=The Diplomat
EXTD=ID3G:   2 YEAR: 2007
EXTT0=
EXTT1=
EXTT2=
EXTT3=
EXTT4=
EXTT5=
EXTT6=
EXTT7=
EXTT8=
EXTT9=
EXTT10=
EXTT11=
EXTT12=
EXTT13=
EXTT14=
EXTT15=
EXTT16=
EXTT17=
PLAYORDER=
